# xmcd
#
# Track frame offsets: 
#        150
#        17862
#        30837
#        34965
#        59545
#        76156
#        92523
#        106578
#        128643
#        156790
#        182457
#        222404
#        260366
#        289808
#        315795
#        335687
#
# Disc length: 4710 seconds
#
# Revision: 0
# Processed by: cddbd v1.5.2PL0 Copyright (c) Steve Scherf et al.
# Submitted via: ExactAudioCopy v1.0b4
#
DISCID=c9126410
DTITLE=Snowy White - Bird of Paradise, An Anthology [ disk 2 ]
DYEAR=2004
DGENRE=Blues Rock
TTITLE0=When You Broke Your Promise
TTITLE1=Walking The Streets
TTITLE2=Chinese Burn (H)
TTITLE3=Chinese Burn
TTITLE4=Cat Flea Jump
TTITLE5=The Answer
TTITLE6=Muddy Fingers
TTITLE7=Voices In The Rain
TTITLE8=That Certain Thing
TTITLE9=I'll Be Holding On
TTITLE10=When I Arise
TTITLE11=For The  Rest Of My Life
TTITLE12=The Yourneys (part 1 and 2)
TTITLE13=Whaters Edge Stepping Stones
TTITLE14=For You
TTITLE15=Bird Of Paridise (2000 re-mix)
EXTD=
EXTT0=
EXTT1=
EXTT2=
EXTT3=
EXTT4=
EXTT5=
EXTT6=
EXTT7=
EXTT8=
EXTT9=
EXTT10=
EXTT11=
EXTT12=
EXTT13=
EXTT14=
EXTT15=
PLAYORDER=
